<svg width="24" height="24" viewBox="0 0 24 24" fill="none" xmlns="http://www.w3.org/2000/svg">
<path d="M20.25 5C20.25 4.30964 19.6904 3.75 19 3.75H5C4.30964 3.75 3.75 4.30964 3.75 5V19C3.75 19.6904 4.30964 20.25 5 20.25H19C19.6904 20.25 20.25 19.6904 20.25 19V5ZM21.75 19C21.75 20.5188 20.5188 21.75 19 21.75H5C3.48122 21.75 2.25 20.5188 2.25 19V5C2.25 3.48122 3.48122 2.25 5 2.25H19C20.5188 2.25 21.75 3.48122 21.75 5V19Z" fill="#6E7681"/>
<path d="M9 7H7V9H9V7Z" fill="#9AA0A6"/>
<path d="M13 7H11V9H13V7Z" fill="#9AA0A6"/>
<path d="M15 9H13V11H15V9Z" fill="#9AA0A6"/>
<path d="M11 9H9V11H11V9Z" fill="#9AA0A6"/>
<path d="M17 7H15V9H17V7Z" fill="#9AA0A6"/>
<path d="M9 11H7V13H9V11Z" fill="#9AA0A6"/>
<path d="M13 11H11V13H13V11Z" fill="#9AA0A6"/>
<path d="M9 15H7V17H9V15Z" fill="#9AA0A6"/>
<path d="M13 15H11V17H13V15Z" fill="#9AA0A6"/>
<path d="M17 11H15V13H17V11Z" fill="#9AA0A6"/>
<path d="M15 13H13V15H15V13Z" fill="#9AA0A6"/>
<path d="M11 13H9V15H11V13Z" fill="#9AA0A6"/>
<path d="M17 15H15V17H17V15Z" fill="#9AA0A6"/>
</svg>
